<svg version="1.0" xmlns="http://www.w3.org/2000/svg"
 width="126.000000pt" height="35.000000pt" viewBox="0 0 126.000000 35.000000"
 preserveAspectRatio="xMidYMid meet">
<metadata>
Created by potrace 1.10, written by Peter Selinger 2001-2011
</metadata>
<g transform="translate(0.000000,35.000000) scale(0.100000,-0.100000)"
fill="#000000" stroke="none">
<path d="M932 329 c-15 -38 -35 -186 -28 -198 9 -13 56 -15 56 -2 0 5 -9 13
-20 16 -24 8 -25 15 -6 41 14 18 15 18 22 0 4 -11 2 -21 -5 -26 -10 -5 -9 -9
2 -13 8 -3 20 0 26 6 8 8 11 7 11 -5 0 -23 22 -28 43 -10 11 10 17 11 17 4 0
-16 43 -15 58 0 7 7 12 20 12 29 0 14 19 29 36 29 2 0 4 -11 4 -25 0 -27 26
-35 48 -13 28 28 9 -8 -23 -43 -34 -38 -41 -61 -29 -93 9 -24 43 -19 53 7 4
12 11 43 15 69 4 26 13 49 21 52 8 3 15 13 15 22 0 14 -2 14 -16 3 -14 -11
-15 -9 -9 24 5 25 4 37 -4 37 -6 0 -11 -5 -11 -11 0 -8 -5 -7 -15 1 -13 10
-19 10 -33 -2 -28 -25 -58 -30 -72 -13 -12 14 -15 14 -33 -2 -10 -10 -23 -28
-28 -40 -5 -13 -13 -23 -19 -23 -19 0 -23 31 -13 109 6 42 8 78 6 81 -9 10
-22 -27 -28 -83 -4 -35 -10 -54 -15 -47 -4 7 -15 10 -24 7 -19 -8 -19 -7 -5
67 11 61 6 86 -9 45z m265 -146 c-9 -9 -19 -14 -23 -11 -3 4 0 16 6 28 9 16
15 19 23 11 8 -8 7 -16 -6 -28z m-95 -3 c6 0 6 -6 -2 -15 -11 -13 -50 -22 -50
-11 0 19 15 36 27 32 8 -3 19 -6 25 -6z m98 -115 c-6 -19 -18 -35 -26 -35 -18
0 -11 30 14 69 20 30 27 11 12 -34z"/>
<path d="M547 333 c-3 -5 -9 -33 -13 -62 -6 -44 -11 -54 -32 -62 -19 -7 -29
-6 -42 6 -17 15 -20 14 -47 -19 -33 -42 -43 -45 -43 -13 0 36 -10 38 -36 9
l-23 -27 -1 35 -1 35 -25 -30 c-22 -26 -25 -27 -19 -7 3 12 2 22 -3 22 -5 0
-13 -15 -17 -32 l-7 -33 -13 30 c-7 17 -17 29 -21 27 -5 -2 -11 5 -15 15 -6
15 -8 13 -14 -12 -17 -69 -61 -104 -49 -39 5 27 4 35 -5 30 -15 -10 -14 -61 2
-74 17 -14 45 -1 66 32 18 26 19 27 25 8 11 -32 43 -34 66 -4 l19 27 1 -27 c0
-33 10 -35 36 -7 l18 20 8 -21 c5 -14 14 -20 23 -16 9 3 25 0 35 -7 24 -14 53
0 59 29 3 19 18 34 34 34 5 0 5 -21 1 -46 -5 -34 -4 -45 5 -40 6 4 11 15 11
24 0 13 3 12 16 -6 18 -26 36 -28 54 -7 7 9 19 14 26 11 7 -3 18 2 25 10 9 11
15 12 26 3 10 -9 17 -9 25 -1 9 9 9 12 0 12 -7 0 -12 13 -12 30 0 57 -79 47
-80 -11 0 -8 -7 -24 -15 -35 -14 -18 -16 -18 -25 -2 -6 10 -11 21 -11 25 0 5
-5 13 -10 20 -6 7 -6 35 2 78 10 61 9 89 -4 68z m123 -131 c0 -5 -11 -19 -25
-32 -26 -24 -33 -14 -15 21 11 19 40 27 40 11z m-203 -36 c-4 -13 -57 -21 -57
-9 0 5 5 14 11 20 13 13 51 5 46 -11z"/>
<path d="M808 239 c-21 -12 -24 -65 -5 -72 6 -2 8 -8 4 -13 -4 -5 -12 -2 -16
5 -7 11 -14 10 -36 -5 l-28 -18 7 37 c4 21 3 37 -2 37 -23 0 -21 -79 2 -81 49
-5 96 18 96 48 0 7 4 13 8 13 5 0 17 7 28 16 19 15 19 15 -1 11 -11 -3 -28 -8
-37 -12 -12 -5 -18 -3 -18 5 0 7 8 19 18 26 20 16 5 18 -20 3z"/>
<path d="M86 218 c-3 -13 -6 -36 -6 -52 0 -17 -9 -35 -23 -46 -13 -10 -32 -34
-42 -54 -18 -33 -18 -37 -3 -52 12 -12 20 -14 36 -5 27 14 42 61 49 154 6 75
1 99 -11 55z m-21 -145 c-19 -45 -29 -57 -45 -51 -7 2 1 20 19 46 38 52 46 53
26 5z"/>
<path d="M565 216 c-17 -12 -14 -36 5 -36 13 0 32 38 22 44 -5 3 -17 -1 -27
-8z"/>
</g>
</svg>